<svg width="13" height="13" viewBox="0 0 13 13" fill="none" xmlns="http://www.w3.org/2000/svg">
<g clip-path="url(#clip0_543_1450)">
<path d="M11.9167 6.00169V6.50003C11.916 7.66809 11.5378 8.80464 10.8384 9.74018C10.139 10.6757 9.15594 11.3601 8.03581 11.6913C6.91569 12.0225 5.71851 11.9827 4.62283 11.5779C3.52716 11.1731 2.59168 10.425 1.95593 9.44511C1.32018 8.46521 1.01822 7.30606 1.09507 6.14053C1.17192 4.975 1.62348 3.86554 2.3824 2.97761C3.14131 2.08968 4.16692 1.47086 5.30626 1.21344C6.44561 0.956021 7.63764 1.07379 8.70458 1.5492M11.9167 2.1667L6.5 7.58878L4.875 5.96378" stroke="#008D00" stroke-width="2" stroke-linecap="round" stroke-linejoin="round"/>
</g>
<defs>
<clipPath id="clip0_543_1450">
<rect width="13" height="13" fill="white"/>
</clipPath>
</defs>
</svg>
